<svg xmlns="http://www.w3.org/2000/svg" xmlns:xlink="http://www.w3.org/1999/xlink" version="1.1" width="256" height="256" viewBox="0 0 256 256" fill="fff" xml:space="preserve">

<defs>
</defs>
<g style="stroke: none; stroke-width: 0; stroke-dasharray: none; stroke-linecap: butt; stroke-linejoin: miter; stroke-miterlimit: 10; fill: #fff; fill-rule: nonzero; opacity: 1;" transform="translate(1.4065934065934016 1.4065934065934016) scale(2.81 2.81)" >
	<path d="M 45 55.773 c -5.94 0 -10.773 -4.833 -10.773 -10.773 S 39.06 34.227 45 34.227 S 55.773 39.06 55.773 45 S 50.94 55.773 45 55.773 z M 45 36.227 c -4.837 0 -8.773 3.936 -8.773 8.773 c 0 4.838 3.936 8.773 8.773 8.773 c 4.838 0 8.773 -3.936 8.773 -8.773 C 53.773 40.163 49.838 36.227 45 36.227 z" style="stroke: none; stroke-width: 1; stroke-dasharray: none; stroke-linecap: butt; stroke-linejoin: miter; stroke-miterlimit: 10; fill: #fff; fill-rule: nonzero; opacity: 1;" transform=" matrix(1 0 0 1 0 0) " stroke-linecap="round" />
	<path d="M 10.773 55.773 C 4.833 55.773 0 50.94 0 45 s 4.833 -10.773 10.773 -10.773 S 21.546 39.06 21.546 45 S 16.713 55.773 10.773 55.773 z M 10.773 36.227 C 5.936 36.227 2 40.163 2 45 c 0 4.838 3.936 8.773 8.773 8.773 s 8.773 -3.936 8.773 -8.773 C 19.546 40.163 15.61 36.227 10.773 36.227 z" style="stroke: none; stroke-width: 1; stroke-dasharray: none; stroke-linecap: butt; stroke-linejoin: miter; stroke-miterlimit: 10; fill: #fff; fill-rule: nonzero; opacity: 1;" transform=" matrix(1 0 0 1 0 0) " stroke-linecap="round" />
	<path d="M 79.227 55.773 c -5.94 0 -10.772 -4.833 -10.772 -10.773 s 4.832 -10.773 10.772 -10.773 S 90 39.06 90 45 S 85.167 55.773 79.227 55.773 z M 79.227 36.227 c -4.837 0 -8.772 3.936 -8.772 8.773 c 0 4.838 3.936 8.773 8.772 8.773 C 84.064 53.773 88 49.838 88 45 C 88 40.163 84.064 36.227 79.227 36.227 z" style="stroke: none; stroke-width: 1; stroke-dasharray: none; stroke-linecap: butt; stroke-linejoin: miter; stroke-miterlimit: 10; fill: #fff; fill-rule: nonzero; opacity: 1;" transform=" matrix(1 0 0 1 0 0) " stroke-linecap="round" />
</g>
</svg>